<?xml version="1.0" encoding="UTF-8"?><svg width="320" height="320" version="1.1" viewBox="0 0 33.867 33.867" xmlns="http://www.w3.org/2000/svg" xmlns:xlink="http://www.w3.org/1999/xlink"><defs><linearGradient id="a" x1="129.67" x2="129.67" y1="123.1" y2="54.659" gradientTransform="matrix(.35506 0 0 .35506 -27.396 -12.619)" gradientUnits="userSpaceOnUse"><stop stop-color="#b703f0" offset=".74773"/><stop stop-color="#b702f1" stop-opacity=".53314" offset=".82491"/><stop stop-color="#ba02f4" stop-opacity=".16815" offset=".95825"/></linearGradient></defs><rect x="10.797" y="7.0681" width="6.8653" height="6.6554" fill="#22f5a2"/><path d="m6.8738 8.9829c-3.21e-5 -2.2412 0.92883-6.6427 6.8356-6.6427 5.5651 0 6.7662 3.9714 6.7662 6.6934v11.663c-5.4385 0-4.4414-7.4475-4.5118-11.125-0.01864-0.97436-1.3038-1.8448-2.2783-1.8322-1.0195 0.013174-2.3198 0.95833-2.3333 1.9778-0.0476 3.6099 0.80844 11.005-4.4783 10.98z" fill="#c27400" stroke="#f5b841" stroke-linejoin="bevel" stroke-width=".75775" style="mix-blend-mode:normal;paint-order:normal;shape-padding:9.54293;text-orientation:sideways;white-space:pre" aria-label="U"/><path d="m16.034 19.655v-8.7085c0-1.4678-0.26748-3.2081-2.3486-3.2081-2.2586 0-2.3815 2.2951-2.3813 3.2455l0.0016 8.8689" fill="none" stroke="#f5b841" stroke-linejoin="bevel" stroke-width="1.2852" style="mix-blend-mode:normal;paint-order:normal;shape-padding:9.54293;text-orientation:sideways;white-space:pre"/><path d="m6.4949 28.515s0.99364 1.6007 2.1625 1.6105c1.6647 0.01388 2.1648-0.92297 2.6275-0.92297 0.46268 0 0.8484 0.93076 2.3902 0.93634 1.5694 0.0057 1.8543-0.93634 2.3997-0.93634 0.54544 0 0.64525 0.93794 2.3519 0.93794 1.7186 0 1.623-1.559 2.3078-1.5825l6.3958-0.04296c3.0962 0.04571 3.0363-4.8484 0-4.8919-3.5576 0.06064-11.099 0-11.099 0l0.0024-12.677c7e-6 -0.72397 0.23494-3.1939-2.3486-3.2081-2.5835-0.014189-2.3801 2.4103-2.3801 3.1627l0.01091 12.722z" fill="url(#a)" style="mix-blend-mode:normal;paint-order:normal"/><path d="m6.6411 28.352c-0.00585 0.54373 0.84748 1.7644 2.0163 1.7742 1.6647 0.01388 2.1648-0.92297 2.6275-0.92297 0.46268 0 0.8484 0.93076 2.3902 0.93634 1.5694 0.0057 1.8543-0.93634 2.3997-0.93634 0.54544 0 0.64525 0.93794 2.3519 0.93794 1.7186 0 1.8628-1.7657 2.5476-1.7892" fill="none" stroke="#f5b841" stroke-linejoin="round" stroke-width=".4338" style="mix-blend-mode:normal;paint-order:normal"/><path transform="matrix(.35506 0 0 .35506 -27.396 -12.619)" d="m109.03 102.07v-14.563c2.5e-4 -3.685-3.1141-6.6724-6.7991-6.6725h1e-5c-3.685 3e-5 -6.3524 2.9875-6.3521 6.6725v27.907h58.53c5.4765 0 8.4777-10.245 0-12.999l-19-0.34514-0.0428-14.563c-0.0454-3.6723-2.7003-6.2837-6.3517-6.5831-3.6355 1.46e-4 -6.704 2.9474-6.704 6.5831v14.563" fill="#8202aa" style="mix-blend-mode:normal;paint-order:normal"/><path transform="matrix(.35506 0 0 .35506 -27.396 -12.619)" d="m102.23 80.209c-4.1489-0.0083-6.9974 3.3906-7.0039 7.3008-0.01551 20.849-0.01165 23.083-0.0039 27.906 5.77e-4 0.36097 0.29367 0.65651 0.6543 0.65625 15.555-0.0118 38.812-0.0378 58.531-0.0566 1.5698-4e-3 2.9353-0.75159 3.9336-1.8477 1.2555-1.3785 1.9855-3.3636 1.9238-5.373-0.0617-2.0095-0.91788-4.0452-2.832-5.5117-0.67465-0.51687-1.3894-0.88675-1.9531-1.1289-0.28186-0.12108-0.52614-0.21039-0.70898-0.26953-0.0914-0.0296-0.16825-0.0514-0.22657-0.0664-0.0583-0.015-0.0921-0.0245-0.125-0.0254-5.8903-0.13669-12.849-0.3673-18.258-0.45899-0.0102-3.0445-0.0364-7.6695-0.0703-13.828a0.063715 0.063715 0 0 0 0-2e-3c-0.0623-4.0254-2.9973-6.9473-7.0215-7.2637a0.063715 0.063715 0 0 0-2e-3 0c-0.02-0.0015-0.0376-2e-3 -0.0547-2e-3 -3.8619 0.0131-7.367 3.1511-7.3555 7.2695 9e-3 6.2602 0.0156 11.422 0.0156 14.629 0 1.4982 0.50781 4.2363 0.50781 4.2363a0.063715 0.063715 0 0 0 0.125 2e-3s0.15894-0.72575 0.31836-1.6172 0.32032-1.9467 0.32032-2.6211c0-3.2069 5e-3 -8.3687 0.0137-14.629 0.0128-3.369 2.9054-5.8927 6.0273-5.8945l-6e-3 -2e-3c3.3005 0.29344 5.6298 2.6288 5.6582 5.9062 2e-3 6.1803 6e-3 11.513 0.0137 14.557 1e-3 0.40977 0.33016 0.74634 0.74023 0.75391 6.3039 0.10007 12.61 0.1485 18.914 0.21289 0.99469 0.3269 1.7768 0.74965 2.3926 1.209 1.6657 1.2424 2.3776 2.9583 2.416 4.6484 0.0384 1.6902-0.59973 3.3537-1.6367 4.4785-0.35481 0.38485-1.4258 1.4459-3.0703 1.4395-19.449-0.0187-42.327-0.0427-57.875-0.0547 0.01268-9.0842 0.0027-18.17-0.0039-27.254-7e-3 -3.4038 2.448-6.0351 5.7012-6.043 3.465-0.0081 6.2108 2.8088 6.2168 6.043 5e-3 6.14 8e-3 11.195 8e-3 14.512-1.3e-4 1.5166 0.45899 4.3516 0.45899 4.3516a0.063715 0.063715 0 0 0 0.125 2e-3s0.56041-2.8322 0.56054-4.3516c2.8e-4 -3.3166 4e-3 -8.3717 0.01-14.512 8e-3 -3.8586-3.2385-7.2924-7.3789-7.3008z" fill="#c28fec" style="mix-blend-mode:normal;paint-order:normal"/></svg>
